<?xml version="1.0" encoding="UTF-8" standalone="no"?>
<svg
   width="47.286739"
   height="55.948292"
   viewBox="0 0 47.286739 55.948292"
   fill="none"
   version="1.1"
   id="svg37"
   sodipodi:docname="fs_logo_blue.svg"
   inkscape:version="1.4.3 (0d15f75042, 2025-12-25)"
   xmlns:inkscape="http://www.inkscape.org/namespaces/inkscape"
   xmlns:sodipodi="http://sodipodi.sourceforge.net/DTD/sodipodi-0.dtd"
   xmlns="http://www.w3.org/2000/svg"
   xmlns:svg="http://www.w3.org/2000/svg">
  <defs
     id="defs37" />
  <sodipodi:namedview
     id="namedview37"
     pagecolor="#ffffff"
     bordercolor="#000000"
     borderopacity="0.25"
     inkscape:showpageshadow="2"
     inkscape:pageopacity="0.0"
     inkscape:pagecheckerboard="0"
     inkscape:deskcolor="#d1d1d1"
     inkscape:zoom="5.4292797"
     inkscape:cx="97.80303"
     inkscape:cy="38.310791"
     inkscape:window-width="1920"
     inkscape:window-height="1011"
     inkscape:window-x="0"
     inkscape:window-y="0"
     inkscape:window-maximized="1"
     inkscape:current-layer="svg37" />
  <path
     d="m 46.75984,0 c -5.3632,0.16506 -11.5542,1.98504 -15.7467,5.16699 -4.1559,3.1539 -7.2575,7.5743 -8.8071,12.5227 h -11.2912 l -0.9482,0.6718 -1.7269,6.4329 0.5533,0.7423 h 11.279 l -1.3134,4.8803 H 7.46304 l -0.9477,0.6718 -1.72681,6.4329 0.55321,0.7423 h 11.1033 c -2.4384,5.6944 -7.4081,9.5627 -13.7637,9.8774 L 1.74146,48.78419 0,55.22339 l 0.57026,0.7249 c 10.53248,0 21.15898,-7.5791 24.22558,-17.6843 h 11.6083 l 0.9238,-0.7423 1.7478,-6.4329 -0.5372,-0.6718 h -11.6185 l 1.3139,-4.8803 h 11.6214 l 0.9238,-0.7423 1.7478,-6.4329 -0.5376,-0.6718 h -11.393 c 2.5454,-5.7216 7.5789,-9.5671 14.0412,-9.8398 l 0.9243,-0.7042 1.7249,-6.40244 C 47.04034,0.4334 47.00624,0.30985 46.75984,0 Z"
     fill="#002eff"
     id="path37" />
</svg>
